<?xml version="1.0" standalone="no"?>
<!DOCTYPE svg PUBLIC "-//W3C//DTD SVG 20010904//EN"
 "http://www.w3.org/TR/2001/REC-SVG-20010904/DTD/svg10.dtd">
<svg version="1.0" xmlns="http://www.w3.org/2000/svg"
 width="500.000000pt" height="500.000000pt" viewBox="0 0 500.000000 500.000000"
 preserveAspectRatio="xMidYMid meet">

<g transform="translate(0.000000,500.000000) scale(0.100000,-0.100000)"
fill="#000000" stroke="none">
<path d="M1978 3992 l-38 -3 0 -120 c0 -93 -3 -121 -14 -125 -12 -5 -123 19
-131 28 -1 2 1 28 5 58 8 50 6 57 -15 76 -32 29 -109 58 -137 51 -53 -14 -57
-24 -88 -215 -17 -101 -30 -186 -30 -188 0 -3 -4 -2 -10 1 -5 3 -10 15 -10 25
0 11 -5 41 -10 68 -9 41 -17 52 -53 76 -48 32 -81 31 -140 -4 -32 -19 -37 -27
-33 -49 11 -53 28 -230 24 -243 -3 -7 -13 14 -24 47 l-19 60 -62 3 c-59 3 -63
2 -115 -41 -36 -29 -55 -53 -58 -73 l-5 -29 -14 35 c-8 19 -39 81 -69 138
l-55 102 -57 0 c-59 0 -94 -17 -179 -88 l-33 -28 41 -67 c23 -37 41 -69 41
-71 0 -2 18 -36 39 -75 36 -65 39 -77 34 -122 -6 -47 -7 -50 -32 -45 -95 18
-111 18 -144 -3 -18 -11 -42 -29 -52 -41 -10 -11 -21 -20 -25 -20 -4 0 -29 47
-55 105 -27 58 -51 105 -55 105 -3 0 -35 -17 -71 -39 -53 -32 -67 -46 -84 -86
l-19 -46 93 -186 c64 -127 90 -188 82 -192 -11 -7 19 -81 259 -631 37 -85 114
-261 170 -390 56 -129 143 -327 192 -440 49 -113 99 -227 111 -255 11 -27 21
-51 22 -52 1 -2 122 31 271 71 148 40 364 99 479 130 l210 57 55 -30 c281
-153 746 -231 1290 -218 343 8 591 47 720 112 112 57 192 159 206 266 4 29 20
77 35 106 15 29 31 73 35 98 3 25 15 62 25 82 13 26 17 48 13 71 -5 25 -2 38
14 55 28 31 42 62 42 92 0 30 -31 95 -54 114 -14 12 -13 16 7 45 30 43 37 171
12 248 -63 196 -271 398 -568 554 -344 179 -744 253 -1155 213 -62 -6 -115 -9
-117 -7 -2 2 -11 64 -20 138 -20 173 -22 181 -40 174 -12 -5 -14 4 -12 47 l2
53 -70 43 c-50 31 -79 43 -100 41 l-30 -3 -7 99 c-4 54 -9 100 -11 102 -2 3
-30 14 -62 25 -46 16 -64 18 -88 10 -16 -6 -34 -11 -38 -11 -5 0 -9 31 -9 68
0 65 -2 70 -35 102 -37 36 -93 49 -177 42z m140 -53 c29 -18 28 -33 0 -25 -13
3 -42 6 -64 6 -28 0 -50 7 -65 21 l-24 20 66 -4 c36 -2 75 -11 87 -18z m-127
-25 c15 -19 15 -203 -1 -644 -13 -336 -14 -346 -40 -353 -19 -5 -20 -1 -15
136 6 156 25 806 25 850 0 30 11 35 31 11z m-345 -21 c-3 -16 -10 -68 -16
-116 -12 -100 -27 -184 -35 -198 -4 -5 -14 -13 -24 -19 -17 -8 -16 4 12 163
16 95 34 178 39 185 18 21 30 13 24 -15z m92 7 c38 -17 42 -23 42 -54 0 -19
-4 -45 -10 -58 -5 -13 -14 -65 -19 -116 -5 -51 -11 -95 -13 -98 -3 -2 -30 3
-61 13 -50 16 -55 20 -51 43 18 110 44 273 44 281 0 14 21 11 68 -11z m371 -7
l54 -6 -7 -191 c-11 -309 -42 -686 -57 -702 -18 -16 -109 -56 -109 -46 0 4 7
142 15 307 8 165 15 378 15 473 0 194 -9 177 89 165z m141 -257 c0 -115 -22
-445 -36 -544 -5 -34 -12 -46 -35 -57 -15 -8 -30 -15 -31 -15 -2 0 2 64 8 143
7 78 18 240 25 359 12 203 14 217 33 227 12 5 24 10 29 10 4 1 7 -55 7 -123z
m90 100 c28 -13 37 -42 39 -124 1 -50 -1 -54 -28 -63 -37 -13 -40 -24 -47
-249 -7 -184 -7 -185 -33 -207 -14 -12 -28 -22 -31 -23 -3 0 0 55 7 123 6 67
15 222 19 345 8 248 2 232 74 198z m-443 -32 c23 -9 31 -17 27 -29 -9 -22 -42
-10 -79 27 -30 30 -30 30 -5 23 14 -4 40 -13 57 -21z m-474 -1 l32 -17 -40
-12 c-53 -16 -78 -17 -93 -2 -10 10 -5 16 25 30 21 9 39 17 41 17 2 1 17 -7
35 -16z m437 -131 c0 -95 -21 -268 -61 -507 -36 -218 -35 -214 -62 -224 -62
-23 -69 -24 -63 -4 24 74 98 603 112 792 l7 94 34 -36 c31 -35 33 -40 33 -115z
m-381 26 c31 -171 100 -793 89 -804 -11 -10 -108 -32 -108 -24 0 27 -72 652
-85 737 -8 57 -15 109 -15 117 0 11 52 30 96 35 7 0 17 -26 23 -61z m-127 -54
c9 -54 30 -223 47 -374 47 -432 46 -409 27 -416 -9 -4 -20 -4 -23 0 -7 6 -74
622 -88 805 -6 77 -5 93 6 89 9 -3 20 -41 31 -104z m557 97 c17 -11 17 -86 1
-471 -5 -124 -10 -235 -10 -247 0 -17 -12 -26 -56 -43 -31 -11 -58 -19 -59
-18 -2 2 10 71 25 153 38 198 70 457 70 556 0 79 3 86 29 70z m-1069 -4 c0 -2
-24 -20 -52 -39 -50 -34 -128 -59 -128 -41 0 18 116 83 148 83 17 0 32 -2 32
-3z m85 -112 c19 -34 75 -157 125 -275 85 -201 90 -214 74 -231 -16 -18 -15
-27 6 -149 12 -72 20 -133 17 -136 -2 -3 -7 6 -11 20 -3 14 -34 89 -67 168
-40 94 -70 181 -85 253 -13 61 -26 120 -29 133 -4 17 -12 22 -39 22 -29 0 -36
5 -61 53 -16 28 -45 77 -66 108 l-38 57 52 40 52 41 18 -21 c10 -12 33 -49 52
-83z m715 31 c0 -2 -8 -10 -17 -17 -16 -13 -17 -12 -4 4 13 16 21 21 21 13z
m21 -13 c-11 -5 -11 -7 0 -14 11 -7 10 -9 -3 -9 -18 0 -23 11 -11 23 3 4 11 7
17 6 6 0 5 -3 -3 -6z m-898 -49 c18 -25 48 -72 66 -105 30 -55 31 -59 12 -59
-11 0 -26 -9 -34 -20 -13 -19 -18 -14 -81 98 -36 66 -66 122 -66 126 0 3 16 6
35 6 30 0 40 -6 68 -46z m947 42 c0 -2 -7 -7 -16 -10 -8 -3 -12 -2 -9 4 6 10
25 14 25 6z m746 -108 c-3 -50 -6 -119 -6 -152 -1 -61 -1 -61 -49 -98 -27 -21
-52 -38 -55 -38 -8 0 -8 299 0 338 7 33 18 39 78 41 l39 1 -7 -92z m-1216 63
c0 -10 16 -65 35 -120 l35 -102 -27 -23 c-16 -14 -29 -24 -30 -23 -1 1 -20 55
-42 121 -45 129 -50 162 -25 152 8 -3 12 -2 9 4 -3 6 5 10 19 10 19 0 26 -5
26 -19z m413 9 l27 0 0 -217 c-1 -187 -4 -236 -25 -346 -35 -188 -40 -186 -62
15 -16 157 -29 518 -19 544 4 11 13 14 29 10 12 -3 34 -6 50 -6z m59 -150 c-9
-53 -10 -50 -11 46 0 55 2 104 7 108 11 12 14 -92 4 -154z m824 133 l43 -28
-6 -60 c-7 -74 -13 -85 -63 -125 l-40 -32 0 54 c0 74 12 218 18 218 3 0 24
-12 48 -27z m-1358 -99 c18 -56 52 -150 76 -208 l44 -106 -59 0 c-33 0 -62 0
-66 -1 -8 0 -73 185 -103 293 l-19 68 42 35 c22 19 44 32 47 28 4 -5 21 -54
38 -109z m1441 -200 c7 -69 11 -127 10 -128 -10 -8 -191 -48 -195 -43 -3 3 -9
33 -14 68 l-9 64 32 25 c18 13 59 50 92 82 33 32 63 58 66 58 3 0 11 -57 18
-126z m-1715 91 c-6 -15 -76 -39 -95 -33 -5 2 -2 13 6 26 20 27 99 34 89 7z
m-526 -20 c-9 -21 -95 -85 -113 -85 -18 0 27 54 65 79 56 37 62 37 48 6z m589
-180 c20 -88 37 -170 37 -182 1 -13 4 -23 9 -23 4 0 7 -8 7 -17 0 -10 9 -46
19 -80 l19 -63 -28 0 c-23 0 -28 5 -33 33 -3 17 -19 95 -36 172 -40 188 -55
299 -46 332 7 24 9 25 12 8 2 -11 20 -92 40 -180z m-543 113 c-4 -6 -3 -8 3
-5 5 3 22 -20 36 -51 23 -50 32 -77 53 -167 2 -11 -7 2 -21 28 -15 27 -24 51
-22 54 3 2 -4 14 -15 25 -12 12 -18 28 -15 39 3 10 2 17 -3 14 -12 -7 -52 95
-45 113 5 14 9 12 21 -11 8 -15 12 -33 8 -39z m889 3 c-1 -2 -9 2 -18 9 -12
10 -12 16 -3 34 12 20 12 20 18 -9 4 -16 5 -32 3 -34z m-414 -56 c11 -80 26
-159 78 -408 l6 -28 -59 3 -59 3 -32 170 c-18 94 -36 209 -39 257 l-7 86 29 5
c74 11 69 16 83 -88z m-510 33 c10 -24 54 -115 96 -203 43 -88 83 -176 90
-196 l13 -36 -66 14 c-37 7 -72 21 -79 29 -29 39 -187 368 -178 371 6 2 30 17
55 33 25 16 46 30 48 30 1 0 11 -19 21 -42z m936 -55 c10 -54 0 -50 -29 13
-32 69 -32 73 -2 45 13 -13 27 -39 31 -58z m-665 -104 c22 -74 53 -170 70
-213 16 -44 28 -82 25 -84 -2 -2 -31 -1 -64 3 l-60 7 -31 86 c-40 111 -70 219
-70 254 0 21 10 35 42 58 22 17 43 28 45 26 2 -2 21 -63 43 -137z m87 127 c5
-5 83 -399 83 -417 0 -30 -47 -11 -60 25 -43 118 -82 234 -104 315 l-25 93 52
-6 c28 -4 53 -9 54 -10z m1649 -68 c5 -29 8 -57 9 -61 0 -5 -36 -23 -80 -41
-284 -115 -442 -286 -470 -508 -5 -40 -2 -69 13 -113 29 -92 20 -158 -29 -213
-46 -53 -76 -112 -88 -175 -8 -45 -7 -47 14 -47 12 0 36 -3 53 -6 39 -8 55
-50 58 -149 6 -235 8 -248 37 -308 21 -41 46 -72 87 -105 32 -26 59 -49 59
-52 1 -3 -115 -36 -257 -74 -141 -38 -338 -91 -436 -118 -99 -27 -183 -45
-187 -41 -5 5 -33 64 -63 133 -81 189 -215 494 -301 690 -42 96 -118 267 -167
380 -50 113 -103 234 -118 270 -15 36 -41 96 -59 134 l-31 68 28 -6 c15 -4 73
-17 130 -29 l103 -22 48 -110 c53 -123 189 -471 311 -795 116 -309 133 -351
137 -347 2 2 -23 78 -56 168 -57 159 -95 261 -208 554 -30 77 -84 219 -120
315 -36 96 -69 183 -74 192 -8 15 6 16 174 16 206 -1 317 10 532 53 309 63
634 194 860 349 39 26 73 48 77 49 3 0 10 -23 14 -51z m-1089 -41 c7 -7 56
-277 51 -282 -2 -2 -29 -7 -59 -11 l-56 -6 -21 133 c-27 160 -27 166 -4 173
18 5 81 0 89 -7z m2014 -21 c308 -49 609 -168 814 -322 148 -110 289 -278 334
-399 23 -62 27 -140 9 -180 -25 -55 -116 -83 -388 -122 -177 -25 -734 -25
-970 0 -674 72 -1123 208 -1205 368 -34 65 -7 194 63 296 136 201 430 333 837
377 81 8 413 -3 506 -18z m-2123 -120 c27 -152 27 -166 4 -166 -16 0 -21 17
-36 130 -17 125 -17 160 2 160 5 0 18 -56 30 -124z m-109 -60 c23 -55 41 -103
41 -108 0 -4 -8 -8 -18 -8 -13 0 -24 25 -50 118 -31 113 -40 159 -22 117 5
-11 27 -65 49 -119z m1034 -688 c152 -66 385 -123 647 -158 184 -25 181 -20
40 -67 -69 -23 -140 -44 -158 -47 -47 -8 -82 8 -82 38 0 27 -33 56 -63 56 -11
0 -62 -23 -113 -51 -140 -75 -180 -60 -93 35 28 31 48 56 44 56 -3 0 -36 -18
-72 -40 -37 -22 -74 -40 -83 -40 -20 0 -41 23 -63 66 -14 28 -22 32 -67 36
-28 3 -59 13 -70 23 -25 23 -50 98 -50 152 l0 44 48 -33 c26 -18 87 -50 135
-70z m-209 -72 c9 -29 23 -60 32 -67 10 -8 44 -16 77 -19 40 -3 62 -10 65 -19
3 -10 0 -12 -12 -8 -9 4 -77 10 -151 13 -74 4 -135 9 -135 11 0 21 90 143 106
143 2 0 10 -24 18 -54z m2550 -96 c14 -17 28 -47 32 -67 6 -33 3 -40 -25 -65
-37 -33 -74 -36 -143 -11 -48 17 -48 17 -108 -12 -54 -26 -63 -27 -97 -17 -33
10 -43 9 -79 -10 -41 -21 -42 -22 -90 -3 -44 17 -144 97 -144 115 0 5 39 11
88 14 217 15 498 59 520 81 10 10 21 4 46 -25z m-1244 -40 c58 -5 205 -13 327
-16 188 -6 220 -9 216 -22 -11 -27 -60 -40 -111 -28 -44 10 -46 9 -66 -19 -51
-71 -62 -77 -125 -70 -49 6 -63 3 -92 -14 -19 -12 -44 -21 -55 -21 -35 0 -163
70 -187 101 -20 28 -25 30 -81 27 -66 -3 -75 5 -61 59 6 25 8 25 68 19 34 -4
109 -11 167 -16z m-1195 -96 c50 -16 106 -57 94 -69 -8 -7 -100 20 -145 43
-44 23 -94 74 -94 98 0 9 16 2 45 -21 25 -19 70 -42 100 -51z m23 70 c16 -5
22 -14 22 -35 0 -17 -5 -29 -12 -29 -17 1 -92 35 -121 55 -20 14 -19 15 33 15
30 0 65 -3 78 -6z m469 -9 c8 -22 3 -23 -36 -13 -26 7 -31 12 -20 19 22 14 49
11 56 -6z m407 -30 c-5 -30 -3 -36 18 -44 13 -5 51 -9 84 -8 54 0 64 -3 109
-38 53 -40 108 -67 175 -85 34 -9 47 -8 89 10 27 12 55 21 62 20 44 -6 66 3
106 46 43 47 43 47 106 45 41 -1 69 3 82 13 17 12 23 12 47 -5 15 -11 48 -29
73 -40 l47 -21 -99 -55 c-123 -70 -212 -132 -285 -201 l-57 -54 -58 45 c-138
106 -334 203 -569 284 -102 34 -132 48 -118 54 10 4 51 21 89 38 95 41 108 41
99 -4z m-729 -75 c3 -5 1 -10 -4 -10 -6 0 -11 5 -11 10 0 6 2 10 4 10 3 0 8
-4 11 -10z m40 -20 c3 -5 15 -10 25 -10 10 0 26 -7 34 -16 9 -8 22 -12 28 -8
9 5 10 4 3 -4 -11 -12 -85 6 -85 20 0 5 -7 8 -15 8 -8 0 -15 5 -15 10 0 6 4
10 9 10 6 0 13 -4 16 -10z m195 -60 c45 -11 168 -29 244 -34 32 -3 61 -7 64
-10 9 -9 -66 -6 -148 5 -41 6 -91 13 -110 14 -19 2 -42 5 -50 8 -8 2 -34 8
-57 12 -24 4 -40 11 -38 16 5 8 33 5 95 -11z m403 -37 c-7 -2 -19 -2 -25 0 -7
3 -2 5 12 5 14 0 19 -2 13 -5z m214 -17 c97 -38 108 -48 43 -41 -30 3 -77 11
-104 17 l-49 10 24 19 c13 10 24 19 25 19 0 0 27 -11 61 -24z m1253 -6 c-8 -5
-19 -10 -25 -10 -5 0 -3 5 5 10 8 5 20 10 25 10 6 0 3 -5 -5 -10z m-40 -9 c0
-9 -41 -23 -49 -16 -3 4 28 20 47 24 1 1 2 -3 2 -8z m-1268 -25 c35 -8 95 -17
133 -21 39 -4 81 -13 95 -20 23 -13 20 -14 -45 -15 -110 0 -242 25 -280 54
-19 15 -19 15 7 16 15 0 55 -6 90 -14z m1208 3 c0 -12 -66 -22 -100 -15 -19 3
-30 1 -30 -6 0 -8 -26 -9 -90 -4 -150 11 -146 23 10 24 79 1 145 4 148 6 7 8
62 3 62 -5z m-2203 -61 c173 -117 651 -223 1168 -259 237 -16 667 -6 852 20
166 23 211 34 276 67 l49 24 -7 -33 c-9 -44 -46 -105 -87 -144 -125 -119 -444
-171 -971 -160 -277 6 -431 21 -637 63 -409 84 -710 265 -710 427 0 42 -3 42
67 -5z"/>
<path d="M3978 1603 c12 -2 30 -2 40 0 9 3 -1 5 -23 4 -22 0 -30 -2 -17 -4z"/>
</g>
</svg>
